<?xml version="1.0" encoding="utf-8"?>
<!-- Generator: Adobe Illustrator 21.0.0, SVG Export Plug-In . SVG Version: 6.00 Build 0)  -->
<svg version="1.1" id="Capa_1" xmlns="http://www.w3.org/2000/svg" xmlns:xlink="http://www.w3.org/1999/xlink" x="0px" y="0px"
	 viewBox="0 0 300 300" style="enable-background:new 0 0 300 300;" xml:space="preserve">
<style type="text/css">
	.st0{fill:#87562A;}
	.st1{fill:#FFFFFF;}
</style>
<g>
	<g>
		<circle class="st0" cx="147.8" cy="148.3" r="137.1"/>
	</g>
</g>
<path class="st1" d="M225.2,207.4c-3.3-3.3-7.6-4.7-11.9-4.5l-15.8-15.7l8.2-8.2c4.1-4.1,4.1-10.7,0-14.8s-10.7-4.1-14.8,0l-3.1,3.1
	l-16.6-16.6l44.9-44.9c0.8-0.8,1.4-1.7,1.9-2.7l10.5-20.9c2-4,1.2-8.9-1.9-12.1c-3.2-3.2-8.1-3.9-12.1-1.9l-20.8,10.3
	c-1,0.5-1.9,1.2-2.7,1.9l-44.9,44.9l-44.9-44.9c-0.8-0.8-1.7-1.4-2.7-1.9L77.7,68c-4-2-8.9-1.2-12.1,1.9c-3.2,3.2-3.9,8.1-1.9,12.1
	l10.5,20.9c0.5,1,1.2,1.9,1.9,2.7l44.9,44.9l-16.6,16.6l-3.1-3.1c-4.1-4.1-10.7-4.1-14.8,0c-4.1,4.1-4.1,10.7,0,14.8l8.2,8.2
	L79,202.7c-4.3-0.2-8.6,1.2-11.9,4.5c-6.1,6.1-6.1,16.1,0,22.2c6.1,6.1,16.1,6.1,22.2,0c3.3-3.3,4.7-7.6,4.5-11.9l15.7-15.7l8.2,8.2
	c2,2,4.7,3.1,7.4,3.1c2.7,0,5.4-1.1,7.4-3.1c4.1-4.1,4.1-10.7,0-14.8l-3.1-3.1l16.6-16.6l16.6,16.6l-3.1,3.1
	c-4.1,4.1-4.1,10.7,0,14.8c2,2,4.7,3.1,7.4,3.1s5.4-1.1,7.4-3.1l8.2-8.2l15.7,15.7c-0.2,4.3,1.2,8.6,4.5,11.9
	c6.1,6.1,16.1,6.1,22.2,0C231.4,223.5,231.4,213.6,225.2,207.4L225.2,207.4z"/>
</svg>
