<?xml version="1.0" encoding="utf-8"?>
<!-- Generator: Adobe Illustrator 21.0.0, SVG Export Plug-In . SVG Version: 6.00 Build 0)  -->
<svg version="1.1" id="Capa_1" xmlns="http://www.w3.org/2000/svg" xmlns:xlink="http://www.w3.org/1999/xlink" x="0px" y="0px"
	 viewBox="0 0 300 300" style="enable-background:new 0 0 300 300;" xml:space="preserve">
<style type="text/css">
	.st0{display:none;}
	.st1{display:inline;}
	.st2{fill:#87562A;}
	.st3{display:none;fill:#FFFFFF;}
	.st4{fill:#B7413B;}
	.st5{display:inline;fill:#FFFFFF;}
	.st6{fill:#564734;}
	.st7{fill:#FFFFFF;}
</style>
<g class="st0">
	<g class="st1">
		<circle class="st2" cx="147.8" cy="148.3" r="137.1"/>
	</g>
</g>
<path class="st3" d="M225.2,207.4c-3.3-3.3-7.6-4.7-11.9-4.5l-15.8-15.7l8.2-8.2c4.1-4.1,4.1-10.7,0-14.8s-10.7-4.1-14.8,0l-3.1,3.1
	l-16.6-16.6l44.9-44.9c0.8-0.8,1.4-1.7,1.9-2.7l10.5-20.9c2-4,1.2-8.9-1.9-12.1c-3.2-3.2-8.1-3.9-12.1-1.9l-20.8,10.3
	c-1,0.5-1.9,1.2-2.7,1.9l-44.9,44.9l-44.9-44.9c-0.8-0.8-1.7-1.4-2.7-1.9L77.7,68c-4-2-8.9-1.2-12.1,1.9c-3.2,3.2-3.9,8.1-1.9,12.1
	l10.5,20.9c0.5,1,1.2,1.9,1.9,2.7l44.9,44.9l-16.6,16.6l-3.1-3.1c-4.1-4.1-10.7-4.1-14.8,0c-4.1,4.1-4.1,10.7,0,14.8l8.2,8.2
	L79,202.7c-4.3-0.2-8.6,1.2-11.9,4.5c-6.1,6.1-6.1,16.1,0,22.2c6.1,6.1,16.1,6.1,22.2,0c3.3-3.3,4.7-7.6,4.5-11.9l15.7-15.7l8.2,8.2
	c2,2,4.7,3.1,7.4,3.1c2.7,0,5.4-1.1,7.4-3.1c4.1-4.1,4.1-10.7,0-14.8l-3.1-3.1l16.6-16.6l16.6,16.6l-3.1,3.1
	c-4.1,4.1-4.1,10.7,0,14.8c2,2,4.7,3.1,7.4,3.1s5.4-1.1,7.4-3.1l8.2-8.2l15.7,15.7c-0.2,4.3,1.2,8.6,4.5,11.9
	c6.1,6.1,16.1,6.1,22.2,0C231.4,223.5,231.4,213.6,225.2,207.4L225.2,207.4z"/>
<g class="st0">
	<g class="st1">
		<circle class="st4" cx="148.1" cy="147.8" r="137.1"/>
	</g>
</g>
<g class="st0">
	<path class="st5" d="M129.9,192.3H163l-6.3-85.2c6.8,0,30.8,4,35.7,0c1.9-1.6,0-16.6,0-19.4c0-4.6-10.7-2.3-14.5-2.3
		c-6.9,0-13.8,0-20.7,0c-0.9,0-0.4-12.4-0.4-13.6c0-7.3,0-14.6,0-21.9c0-3.2-13.2-1.3-16-1.3c-6.5,0-6.9-1.3-6.9,5.1
		c0,8.1,0,16,0,24.1c0,4.6,1.8,7.7-3.1,7.7c-8.7,0-17.5,0-26.2,0c-6.2,0-7.7-1.7-7.7,4.7c0,1.6-0.4,17,0.4,17c12.6,0,25.2,0,37.8,0
		C133.3,135.4,131.6,163.8,129.9,192.3L129.9,192.3z"/>
	<path class="st5" d="M89.1,195.3c22.6,0,45.4,0,68,0c13.4,0,26.9,0,40.4,0c2.9,0,5.8,0,8.8,0c1.1,0,2.9,13.3,4.1,24.1H85.8
		L89.1,195.3L89.1,195.3z"/>
	<path class="st5" d="M76.8,223.4c27.4,0,54.8,0,82.2,0c16.3,0,32.5,0,48.8,0c3.5,0,7.1,0,10.6,0c1.2,0,3.5,13.3,5,24.1H72.9
		L76.8,223.4L76.8,223.4z"/>
</g>
<g>
	<g>
		<circle class="st6" cx="148.2" cy="148.4" r="137.1"/>
	</g>
</g>
<path class="st7" d="M190.7,73.2c-1.5-1.1-3.5-1.2-5.2-0.5l-30.7,13.1v-8.2c0-3.1-2.5-5.5-5.5-5.5c-3.1,0-5.5,2.5-5.5,5.5v8.2
	l-30.7-13.1c-2.8-1.2-6,0.1-7.2,2.8c-0.3,0.7-0.5,1.4-0.5,2.2v32.9c0,2.1,1.2,4,3.1,5l20.4,9.9l-10.5,8.3c-1.2,1.1-2,2.6-2,4.2
	l0.1,60.4c0.6,23,11.3,33.6,29.3,47.9c2,1.6,4.8,1.6,6.8,0c18-14.4,28.8-24.9,29.3-47.9L182,138c0-1.6-0.8-3.3-2-4.3l-10.5-8.3
	l20.4-9.9c1.9-0.9,3.1-2.8,3.1-4.9V77.8C193.2,76,192.2,74.2,190.7,73.2z"/>
</svg>
